# xmcd
# Copyright (C) 1995-1998 Ti Kan
#
# Track frame offsets:
#       150
#       65712
#       202709
#
# Disc length: 3221 seconds
#
# Revision: 0
# Processed by: cddbd v1.5.1PL0 Copyright (c) Steve Scherf et al.
# Submitted via: CD-Transfer v1.0
#
DISCID=220c9303
DTITLE=HIERMEYER - 
DYEAR=1900
DGENRE=
TTITLE0=17 TRACK 01
TTITLE1=17 TRACK 02
TTITLE2=17 TRACK 03
EXTD=
EXTT0=
EXTT1=
EXTT2=
PLAYORDER=
